<?xml version="1.0" encoding="UTF-8"?>
<!DOCTYPE svg  PUBLIC '-//W3C//DTD SVG 20010904//EN'  'http://www.w3.org/TR/2001/REC-SVG-20010904/DTD/svg10.dtd'>
<svg id="svg1" width="161" height="161" version="1.1" xmlns="http://www.w3.org/2000/svg" xmlns:cc="http://web.resource.org/cc/" xmlns:dc="http://purl.org/dc/elements/1.1/" xmlns:rdf="http://www.w3.org/1999/02/22-rdf-syntax-ns#">
 <metadata id="metadata23">
  <rdf:RDF id="RDF25">
   <cc:Work id="Work26" rdf:about="">
    <dc:format id="format27">image/svg+xml</dc:format>
    <dc:type id="type29" rdf:resource="http://purl.org/dc/dcmitype/StillImage"/>
   </cc:Work>
  </rdf:RDF>
 </metadata>
 <path id="path1073" d="m152.98 67.356-30.547 23.34 10.232 34.104-30.047-7.4934-3.0202 30.962-26.489-22.416-28.07 18.32 1.5072-31.837-29.31-6.1635 19.453-21.581-26.506-25.049 32.247-6.6148-9.1229-36.264 31.997 20.058 15.448-31.049 14.486 33.639 30.879-17.879-8.819 36.157 35.682 9.7657z" style="fill-opacity:.99;fill-rule:evenodd;fill:#f30;stroke-width:5.4832;stroke:#000"/>
 <path id="path1689" d="m135.3 70.107-24.218 17.696 10 25.729-24.565-6.8321-4.0472 25.916-19.954-16.167-19.535 14.279 2.9525-23.214-24.683-6.1152 14.917-17.966-21.11-19.141 25.369-5.1631-5.9587-27.683 24.733 16.06 10.735-26.136 11.229 30.499 23.042-13.504-7.2196 26.565 28.313 5.1772z" style="fill-opacity:.99;fill-rule:evenodd;fill:#fffd00;stroke-width:3.1;stroke:#000"/>
 <path id="path1067" d="m57.81 59.544c-13.585 18.499-8.9605 32.373-8.9605 32.373l10.695 10.695-4.0467-20.233 2.3124-22.835z" style="fill-rule:evenodd;fill:#232323;stroke-width:2.5;stroke:#000"/>
 <path id="path1068" d="m70.817 55.786 11.851 13.007s13.296 0.5781 14.452-0.28905c1.1562-0.86714-4.9138-19.944-4.9138-19.944l-21.39 7.2262z" style="fill-rule:evenodd;fill:#232323;stroke-width:2.5;stroke:#000"/>
 <path id="path1069" d="m77.465 85.269 0.86714 18.788 13.007 6.07s1.0839 1.8066 7.9488-7.3707c6.2145-8.0211 4.9861-10.117 4.4802-9.9722l-26.303-7.5153z" style="fill-rule:evenodd;fill:#232323;stroke-width:2.5;stroke:#000"/>
</svg>
